<svg width="467" height="517" viewBox="0 0 467 517" fill="none" xmlns="http://www.w3.org/2000/svg">
<path d="M86 322C108.091 322 126 339.909 126 362C126 384.091 108.091 402 86 402C63.9086 402 46 384.091 46 362C46 339.909 63.9086 322 86 322ZM86 329C67.7746 329 53 343.775 53 362C53 380.225 67.7746 395 86 395C104.225 395 119 380.225 119 362C119 343.775 104.225 329 86 329ZM109.71 367.997C110.264 366.732 111.739 366.156 113.004 366.71C114.268 367.264 114.843 368.738 114.289 370.003C109.436 381.078 98.8441 388.55 86.7832 389.404L83.8301 389.613C82.4531 389.711 81.2579 388.673 81.1602 387.296C81.0628 385.919 82.1004 384.724 83.4775 384.626L86.4297 384.417C96.6374 383.694 105.603 377.37 109.71 367.997ZM82 335.087C83.3805 335.087 84.4997 336.206 84.5 337.587C84.5 338.968 83.3806 340.088 82 340.088H80.5225C75.4852 340.088 70.9023 343.001 68.7637 347.562C68.1775 348.811 66.6885 349.35 65.4385 348.764C64.1886 348.177 63.6503 346.688 64.2363 345.438C67.1983 339.122 73.5459 335.087 80.5225 335.087H82Z" fill="url(#paint0_linear_12_531)"/>
<path d="M381 301C387.627 301 393 306.373 393 313C393 319.627 387.627 325 381 325C374.373 325 369 319.627 369 313C369 306.373 374.373 301 381 301ZM381 305C376.582 305 373 308.582 373 313C373 317.418 376.582 321 381 321C385.418 321 389 317.418 389 313C389 308.582 385.418 305 381 305Z" fill="url(#paint1_linear_12_531)"/>
<path d="M307 437C329.091 437 347 454.909 347 477C347 499.091 329.091 517 307 517C284.909 517 267 499.091 267 477C267 454.909 284.909 437 307 437ZM307 444C288.775 444 274 458.775 274 477C274 495.225 288.775 510 307 510C325.225 510 340 495.225 340 477C340 458.775 325.225 444 307 444ZM330.71 482.997C331.264 481.732 332.739 481.156 334.004 481.71C335.268 482.264 335.843 483.738 335.289 485.003C330.436 496.078 319.844 503.55 307.783 504.404L304.83 504.613C303.453 504.711 302.258 503.673 302.16 502.296C302.063 500.919 303.1 499.724 304.478 499.626L307.43 499.417C317.637 498.694 326.603 492.37 330.71 482.997ZM303 450.087C304.38 450.087 305.5 451.206 305.5 452.587C305.5 453.968 304.381 455.088 303 455.088H301.522C296.485 455.088 291.902 458.001 289.764 462.562C289.177 463.811 287.688 464.35 286.438 463.764C285.189 463.177 284.65 461.688 285.236 460.438C288.198 454.122 294.546 450.087 301.522 450.087H303Z" fill="url(#paint2_linear_12_531)"/>
<path d="M362 334C377.464 334 390 346.536 390 362C390 377.464 377.464 390 362 390C346.536 390 334 377.464 334 362C334 346.536 346.536 334 362 334ZM362 338.9C349.242 338.9 338.9 349.242 338.9 362C338.9 374.758 349.242 385.1 362 385.1C374.758 385.1 385.1 374.758 385.1 362C385.1 349.242 374.758 338.9 362 338.9ZM378.597 366.198C378.985 365.313 380.017 364.91 380.902 365.298C381.787 365.686 382.191 366.717 381.803 367.603C378.406 375.355 370.99 380.584 362.548 381.183L360.481 381.329C359.518 381.397 358.681 380.671 358.612 379.707C358.544 378.743 359.27 377.906 360.234 377.838L362.301 377.691C369.446 377.185 375.722 372.759 378.597 366.198ZM359.2 343.16C360.167 343.16 360.95 343.945 360.95 344.911C360.95 345.877 360.166 346.662 359.2 346.662L358.166 346.661C354.64 346.661 351.432 348.701 349.935 351.894C349.524 352.768 348.482 353.144 347.607 352.734C346.733 352.324 346.356 351.282 346.766 350.407C348.839 345.986 353.282 343.161 358.166 343.161L359.2 343.16Z" fill="url(#paint3_linear_12_531)"/>
<path d="M151 402C162.046 402 171 410.954 171 422C171 433.046 162.046 442 151 442C139.954 442 131 433.046 131 422C131 410.954 139.954 402 151 402ZM151 405.5C141.887 405.5 134.5 412.887 134.5 422C134.5 431.113 141.887 438.5 151 438.5C160.113 438.5 167.5 431.113 167.5 422C167.5 412.887 160.113 405.5 151 405.5ZM162.855 424.998C163.133 424.366 163.869 424.079 164.501 424.355C165.133 424.633 165.422 425.37 165.145 426.002C162.718 431.539 157.422 435.274 151.392 435.701L149.916 435.807C149.227 435.855 148.629 435.336 148.58 434.647C148.532 433.959 149.05 433.362 149.738 433.312L151.216 433.208C156.319 432.846 160.802 429.684 162.855 424.998ZM149 408.544C149.69 408.544 150.25 409.104 150.25 409.794C150.25 410.484 149.69 411.044 149 411.044H148.262C145.743 411.044 143.45 412.5 142.381 414.78C142.088 415.405 141.345 415.675 140.72 415.382C140.095 415.089 139.826 414.345 140.119 413.72C141.6 410.562 144.773 408.544 148.261 408.544H149Z" fill="url(#paint4_linear_12_531)"/>
<path d="M330 37C341.046 37 350 45.9543 350 57C350 68.0457 341.046 77 330 77C318.954 77 310 68.0457 310 57C310 45.9543 318.954 37 330 37ZM330 42C321.716 42 315 48.7157 315 57C315 65.2843 321.716 72 330 72C338.284 72 345 65.2843 345 57C345 48.7157 338.284 42 330 42Z" fill="url(#paint5_linear_12_531)"/>
<path d="M80 0C124.183 0 160 35.8172 160 80C160 124.183 124.183 160 80 160C35.8172 160 0 124.183 0 80C0 35.8172 35.8172 0 80 0ZM80 14C43.5492 14 14 43.5492 14 80C14 116.451 43.5492 146 80 146C116.451 146 146 116.451 146 80C146 43.5492 116.451 14 80 14ZM127.42 91.9932C128.528 89.4639 131.478 88.3126 134.007 89.4209C136.536 90.5293 137.688 93.4777 136.58 96.0068C126.875 118.156 105.688 133.098 81.5664 134.808L75.6611 135.227C72.9067 135.422 70.5145 133.346 70.3193 130.592C70.1243 127.838 72.1999 125.445 74.9541 125.25L80.8594 124.832C101.275 123.385 119.206 110.739 127.42 91.9932ZM72 26.1748C74.7613 26.1749 76.9999 28.4135 77 31.1748C76.9999 33.9361 74.7613 36.1747 72 36.1748H69.0449C58.9703 36.1751 49.8046 42.0014 45.5273 51.123C44.3549 53.6229 41.377 54.6995 38.877 53.5273C36.377 52.3549 35.3013 49.377 36.4736 46.877C42.3976 34.2438 55.0918 26.1751 69.0449 26.1748H72Z" fill="url(#paint6_linear_12_531)"/>
<path d="M407 73C440.137 73 467 99.8629 467 133C467 166.137 440.137 193 407 193C373.863 193 347 166.137 347 133C347 99.8629 373.863 73 407 73ZM407 83.5C379.662 83.5 357.5 105.662 357.5 133C357.5 160.338 379.662 182.5 407 182.5C434.338 182.5 456.5 160.338 456.5 133C456.5 105.662 434.338 83.5 407 83.5ZM442.565 141.995C443.397 140.098 445.608 139.234 447.505 140.065C449.402 140.897 450.266 143.109 449.435 145.006C442.155 161.617 426.266 172.824 408.175 174.105L403.746 174.419C401.68 174.565 399.887 173.009 399.74 170.943C399.594 168.878 401.15 167.085 403.216 166.938L407.645 166.625C422.956 165.54 436.405 156.055 442.565 141.995ZM401 92.6309C403.071 92.6309 404.75 94.3099 404.75 96.3809C404.75 98.4519 403.071 100.131 401 100.131H398.784C391.228 100.131 384.352 104.5 381.145 111.342C380.265 113.217 378.033 114.025 376.158 113.146C374.283 112.266 373.476 110.033 374.355 108.158C378.798 98.6831 388.319 92.6319 398.784 92.6318L401 92.6309Z" fill="url(#paint7_linear_12_531)"/>
<defs>
<linearGradient id="paint0_linear_12_531" x1="116" y1="330.5" x2="51.5" y2="392" gradientUnits="userSpaceOnUse">
<stop offset="0.0144231" stop-color="#F8E5FF"/>
<stop offset="0.129808" stop-color="white"/>
<stop offset="0.5" stop-color="white"/>
<stop offset="0.754808" stop-color="#DBFFFB"/>
<stop offset="0.961538" stop-color="#F8E7FF"/>
</linearGradient>
<linearGradient id="paint1_linear_12_531" x1="356" y1="298.55" x2="336.65" y2="317" gradientUnits="userSpaceOnUse">
<stop offset="0.0144231" stop-color="#F8E5FF"/>
<stop offset="0.129808" stop-color="white"/>
<stop offset="0.5" stop-color="white"/>
<stop offset="0.754808" stop-color="#DBFFFB"/>
<stop offset="0.961538" stop-color="#F8E7FF"/>
</linearGradient>
<linearGradient id="paint2_linear_12_531" x1="337" y1="445.5" x2="272.5" y2="507" gradientUnits="userSpaceOnUse">
<stop offset="0.0144231" stop-color="#F8E5FF"/>
<stop offset="0.129808" stop-color="white"/>
<stop offset="0.5" stop-color="white"/>
<stop offset="0.754808" stop-color="#DBFFFB"/>
<stop offset="0.961538" stop-color="#F8E7FF"/>
</linearGradient>
<linearGradient id="paint3_linear_12_531" x1="383" y1="339.95" x2="337.85" y2="383" gradientUnits="userSpaceOnUse">
<stop offset="0.0144231" stop-color="#F8E5FF"/>
<stop offset="0.129808" stop-color="white"/>
<stop offset="0.5" stop-color="white"/>
<stop offset="0.754808" stop-color="#DBFFFB"/>
<stop offset="0.961538" stop-color="#F8E7FF"/>
</linearGradient>
<linearGradient id="paint4_linear_12_531" x1="166" y1="406.25" x2="133.75" y2="437" gradientUnits="userSpaceOnUse">
<stop offset="0.0144231" stop-color="#F8E5FF"/>
<stop offset="0.129808" stop-color="white"/>
<stop offset="0.5" stop-color="white"/>
<stop offset="0.754808" stop-color="#DBFFFB"/>
<stop offset="0.961538" stop-color="#F8E7FF"/>
</linearGradient>
<linearGradient id="paint5_linear_12_531" x1="345" y1="41.25" x2="312.75" y2="72" gradientUnits="userSpaceOnUse">
<stop offset="0.0144231" stop-color="#F8E5FF"/>
<stop offset="0.129808" stop-color="white"/>
<stop offset="0.5" stop-color="white"/>
<stop offset="0.754808" stop-color="#DBFFFB"/>
<stop offset="0.961538" stop-color="#F8E7FF"/>
</linearGradient>
<linearGradient id="paint6_linear_12_531" x1="140" y1="17" x2="11" y2="140" gradientUnits="userSpaceOnUse">
<stop offset="0.0144231" stop-color="#F8E5FF"/>
<stop offset="0.129808" stop-color="white"/>
<stop offset="0.5" stop-color="white"/>
<stop offset="0.754808" stop-color="#DBFFFB"/>
<stop offset="0.961538" stop-color="#F8E7FF"/>
</linearGradient>
<linearGradient id="paint7_linear_12_531" x1="452" y1="85.75" x2="355.25" y2="178" gradientUnits="userSpaceOnUse">
<stop offset="0.0144231" stop-color="#F8E5FF"/>
<stop offset="0.129808" stop-color="white"/>
<stop offset="0.5" stop-color="white"/>
<stop offset="0.754808" stop-color="#DBFFFB"/>
<stop offset="0.961538" stop-color="#F8E7FF"/>
</linearGradient>
</defs>
</svg>
