<svg width="80" height="80" viewBox="0 0 80 80" fill="none" xmlns="http://www.w3.org/2000/svg">
<path d="M40 0C62.0914 0 80 17.9086 80 40C80 62.0914 62.0914 80 40 80C17.9086 80 0 62.0914 0 40C0 17.9086 17.9086 0 40 0ZM40 7C21.7746 7 7 21.7746 7 40C7 58.2254 21.7746 73 40 73C58.2254 73 73 58.2254 73 40C73 21.7746 58.2254 7 40 7ZM63.71 45.9971C64.2641 44.7324 65.7393 44.1558 67.0039 44.71C68.2682 45.2642 68.8431 46.7384 68.2891 48.0029C63.4364 59.0776 52.8441 66.5496 40.7832 67.4043L37.8301 67.6133C36.4531 67.7106 35.2579 66.6728 35.1602 65.2959C35.0628 63.9188 36.1004 62.7236 37.4775 62.626L40.4297 62.417C50.6374 61.6936 59.6027 55.3699 63.71 45.9971ZM36 13.0869C37.3805 13.087 38.4997 14.2065 38.5 15.5869C38.5 16.9676 37.3806 18.0878 36 18.0879H34.5225C29.4852 18.0881 24.9023 21.0007 22.7637 25.5615C22.1775 26.8115 20.6885 27.3497 19.4385 26.7637C18.1886 26.1775 17.6503 24.6885 18.2363 23.4385C21.1983 17.1219 27.5459 13.0871 34.5225 13.0869H36Z" fill="url(#paint0_linear_7_73)"/>
<defs>
<linearGradient id="paint0_linear_7_73" x1="70" y1="8.5" x2="5.5" y2="70" gradientUnits="userSpaceOnUse">
<stop offset="0.0144231" stop-color="#F8E5FF"/>
<stop offset="0.129808" stop-color="white"/>
<stop offset="0.5" stop-color="white"/>
<stop offset="0.754808" stop-color="#DBFFFB"/>
<stop offset="0.961538" stop-color="#F8E7FF"/>
</linearGradient>
</defs>
</svg>
