<svg width="51" height="55" viewBox="0 0 51 55" fill="none" xmlns="http://www.w3.org/2000/svg">
<path d="M26.3281 0.0136719C33.0647 0.568117 38.9893 2.77995 43.4062 6.89062C47.8565 11.0323 50.4183 16.7705 50.9863 23.6719C51.1675 25.8736 49.5298 27.8051 47.3281 27.9863C45.1264 28.1675 43.1949 26.5298 43.0137 24.3281C42.5817 19.0793 40.7182 15.3178 37.9561 12.7471C35.1901 10.1728 31.1713 8.46924 25.8428 8.00195C15.974 8.0864 8 16.1113 8 26C8 35.9411 16.0589 44 26 44C29.9496 44 33.5969 42.7294 36.5654 40.5723L32.334 39.9697C30.6937 39.7358 29.5541 38.2164 29.7881 36.5762C30.0222 34.9362 31.5407 33.7966 33.1807 34.0303L43.0996 35.4453L43.3525 35.4883C45.9476 35.9935 47.719 38.4496 47.3438 41.0967L45.8672 51.5117C45.6343 53.1518 44.1157 54.2929 42.4756 54.0605C40.8354 53.8278 39.6933 52.3092 39.9258 50.6689L40.3496 47.6816C36.2375 50.4078 31.303 52 26 52C11.6406 52 0 40.3594 0 26C0 11.6406 11.6406 0 26 0H26.1641L26.3281 0.0136719Z" fill="white"/>
</svg>
