<svg width="44" height="41" viewBox="0 0 44 41" fill="none" xmlns="http://www.w3.org/2000/svg">
<path d="M16.8278 1.45492C18.8028 -0.494037 21.9809 -0.483651 23.943 1.47836C25.897 3.43238 25.9165 6.59492 23.9869 8.57309L16.9742 15.7616H38.7701C41.5315 15.7617 43.7701 18.0002 43.7701 20.7616C43.7699 23.5227 41.5313 25.7614 38.7701 25.7616H17.2555L23.9391 32.4452C25.8882 34.3944 25.8882 37.5546 23.9391 39.5038C21.9851 41.4578 18.815 41.4518 16.8678 39.4911L1.55432 24.0721C0.81335 23.3259 0.339433 22.4157 0.130487 21.4598C-0.259449 19.7274 0.224538 17.8381 1.58264 16.4979L16.8278 1.45492Z" fill="white"/>
</svg>
